<svg width="38" height="17" viewBox="0 0 38 17" fill="none" xmlns="http://www.w3.org/2000/svg">
<path d="M1.2747 16C1.11337 16 0.974036 15.9413 0.856703 15.824C0.73937 15.7067 0.680703 15.5673 0.680703 15.406V1.194C0.680703 1.03267 0.73937 0.893333 0.856703 0.775999C0.974036 0.658666 1.11337 0.599999 1.2747 0.599999H5.7627C5.92404 0.599999 6.06337 0.658666 6.1807 0.775999C6.29804 0.893333 6.3567 1.03267 6.3567 1.194V15.406C6.3567 15.5673 6.29804 15.7067 6.1807 15.824C6.06337 15.9413 5.92404 16 5.7627 16H1.2747ZM12.7843 16C12.623 16 12.4836 15.9413 12.3663 15.824C12.249 15.7067 12.1903 15.5673 12.1903 15.406V5.33H8.53831C8.37698 5.33 8.23765 5.27133 8.12031 5.154C8.00298 5.03667 7.94431 4.89733 7.94431 4.736V1.194C7.94431 1.03267 8.00298 0.893333 8.12031 0.775999C8.23765 0.658666 8.37698 0.599999 8.53831 0.599999H21.4303C21.5916 0.599999 21.731 0.658666 21.8483 0.775999C21.9656 0.893333 22.0243 1.03267 22.0243 1.194V4.736C22.0243 4.89733 21.9656 5.03667 21.8483 5.154C21.731 5.27133 21.5916 5.33 21.4303 5.33H17.7783V15.406C17.7783 15.5673 17.7196 15.7067 17.6023 15.824C17.485 15.9413 17.3456 16 17.1843 16H12.7843Z" fill="#21B22F"/>
<path d="M30.5785 16.22C28.3639 16.22 26.6039 15.736 25.2985 14.768C23.9932 13.7853 23.2965 12.282 23.2085 10.258C23.1939 9.862 23.1865 9.21667 23.1865 8.322C23.1865 7.41267 23.1939 6.75267 23.2085 6.342C23.2965 4.37667 24.0079 2.89533 25.3425 1.898C26.6772 0.885999 28.4225 0.379999 30.5785 0.379999C31.8985 0.379999 33.1085 0.577999 34.2085 0.973999C35.3232 1.37 36.2252 1.99333 36.9145 2.844C37.6185 3.68 37.9779 4.736 37.9925 6.012C37.9925 6.144 37.9412 6.26133 37.8385 6.364C37.7505 6.452 37.6405 6.496 37.5085 6.496H33.0205C32.7859 6.496 32.6099 6.452 32.4925 6.364C32.3899 6.276 32.2945 6.10733 32.2065 5.858C32.0452 5.418 31.8325 5.11 31.5685 4.934C31.3045 4.758 30.9672 4.67 30.5565 4.67C30.0432 4.67 29.6472 4.80933 29.3685 5.088C29.0899 5.352 28.9432 5.80667 28.9285 6.452C28.9139 6.848 28.9065 7.45667 28.9065 8.278C28.9065 9.09933 28.9139 9.72267 28.9285 10.148C28.9432 10.7933 29.0899 11.2553 29.3685 11.534C29.6472 11.798 30.0432 11.93 30.5565 11.93C31.3925 11.93 31.9425 11.534 32.2065 10.742C32.2799 10.4927 32.3679 10.324 32.4705 10.236C32.5879 10.148 32.7712 10.104 33.0205 10.104H37.5085C37.6405 10.104 37.7505 10.1553 37.8385 10.258C37.9412 10.346 37.9925 10.456 37.9925 10.588C37.9779 11.864 37.6185 12.9273 36.9145 13.778C36.2252 14.614 35.3232 15.23 34.2085 15.626C33.1085 16.022 31.8985 16.22 30.5785 16.22Z" fill="white"/>
</svg>
